<svg width="46" height="59" viewBox="0 0 46 59" fill="none" xmlns="http://www.w3.org/2000/svg">
<path d="M22.6433 56.5002C23.5535 50.8493 19.8519 43.2042 15.4769 38.9797C15.7025 40.4673 16.8462 41.3822 15.797 45.2478C16.2948 42.2232 12.3574 34.671 13.5109 30.7676C11.664 32.744 11.6876 37.6435 12.1859 40.0937C9.58054 37.516 8.9101 32.9341 10.1168 30.4812C10.0762 32.1287 10.084 33.1193 10.7705 34.2478C10.3924 32.4451 10.6514 30.639 12.002 29.2869C10.6474 28.8398 9.83455 27.3549 9.53894 26.0461C9.40882 27.488 9.43989 27.8092 9.66732 28.9193C6.76213 22.6429 12.2473 16.2553 14.5332 15.5489C12.949 16.8671 12.1433 19.0044 11.9434 21.2898C12.7122 19.9424 13.7599 18.687 15.6301 17.9241C14.7094 18.7882 14.0839 19.8752 13.8014 20.8304C14.7254 19.7232 16.5652 18.6317 18.4178 19.661C17.8101 20.7834 17.1455 22.6657 17.6143 25.0493C16.2573 23.9602 15.893 22.2332 16.6745 20.1392C14.3886 21.8327 14.5268 23.4316 14.8575 25.6505C13.3436 24.1797 13.2143 22.7845 13.6284 21.3684C12.8421 21.9743 12.2248 23.1678 12.2191 24.7229C11.6959 24.3747 11.1557 23.7066 11.1262 22.3233C8.97859 27.4874 13.4719 26.9896 12.34 30.2584C13.3238 29.0333 13.6333 27.1041 12.5673 25.8545C15.0846 27.173 14.8968 28.449 15.0133 30.5657C15.0133 30.5657 16.1009 29.8373 16.0392 27.7964C16.6913 28.357 18.1592 30.6138 17.2233 32.6994C18.8694 31.2607 19.3592 28.8872 17.723 26.7474C19.7145 27.3724 20.1208 30.2696 19.9944 31.8017C20.616 31.2035 21.0235 30.8714 20.8243 29.607C23.1141 33.4489 19.8341 33.7786 22.6968 37.3022C22.232 36.2955 22.4009 34.1999 23.387 33.2895C23.55 34.8038 23.3451 35.9331 25.3166 37.3649C24.961 36.1258 25.1351 35.6163 25.733 34.2392C26.172 35.5995 28.4488 38.9182 31.0176 40.6322C29.151 40.5944 26.9503 40.0615 24.614 38.3643C25.9667 41.5398 29.8035 42.5924 32.1548 42.9567C31.2445 43.2427 30.7492 43.3971 29.5859 43.2321C30.8152 43.5932 33.7021 45.5712 32.9815 48.5033C32.9881 47.664 32.1989 45.8893 31.433 45.4894C31.7929 46.4987 32.0542 48.3763 31.2661 49.9755C31.4941 44.5467 28.7534 43.7387 25.2388 43.0686C27.3344 44.0723 30.0894 45.3748 30.1176 48.7618C29.4736 47.539 28.8779 46.9422 27.8348 46.7167C28.6774 48.4965 28.8469 51.8065 32.643 53.4407C28.0455 53.2214 27.3446 50.7924 26.4771 48.675C26.4887 48.6907 26.8175 53.1709 22.6435 56.5002H22.6433ZM20.8893 58.9655C24.8986 57.3099 26.7025 55.1578 27.3241 53.6837C29.0531 55.5948 33.7145 55.2827 35.0766 54.0583C29.775 49.2633 37.9633 47.3299 32.8184 41.7907C34.4263 42.0769 35.6114 41.6104 36.4981 40.5281C32.4732 41.1372 30.7771 39.0681 29.314 35.9504C30.6142 37.6347 31.6418 38.3075 32.9733 39.0784C33.0793 39.1415 33.1824 39.1778 33.2808 39.1855C34.3793 39.2646 34.6166 38.7142 34.6166 38.7142C34.6166 38.7142 35.2664 38.6401 35.8007 38.3926C36.3365 38.1435 36.0748 37.6687 36.0748 37.6687C36.3377 37.4256 37.1123 36.787 37.1686 35.7167C36.4735 36.4637 34.9514 37.2249 34.0206 35.9371C32.4869 33.1692 37.5512 31.4715 38.1866 33.3892C38.3495 34.1887 37.4052 34.6945 37.2431 34.9055C38.7257 34.9385 39.0092 34.449 39.6125 33.9626C39.7084 34.5012 39.2115 35.3089 38.3579 35.943C40.2933 35.6946 40.8027 34.3765 41.1231 33.7861C41.1231 33.7861 41.7617 33.8773 42.35 33.2073C42.9378 32.5388 44.0886 30.949 44.0886 30.949C44.0886 30.949 44.5038 30.867 45.0791 30.2551C45.6548 29.6431 46.0061 29.2664 45.8448 28.656C45.837 28.6227 45.8274 28.5991 45.8178 28.5818C45.5641 27.9337 44.0867 26.5191 42.4623 25.1395C40.7741 23.7058 40.7188 22.2548 39.8819 21.2501C39.7249 21.0622 39.5634 20.93 39.3935 20.8322C38.7965 20.4837 38.0938 20.5501 37.0953 19.9697C36.8737 19.8403 36.6377 19.6796 36.3837 19.4746C34.6673 18.0885 34.9829 17.8849 35.0224 17.6499C35.0632 17.415 35.5705 16.7733 35.3868 16.3127C35.3003 16.0956 35.1084 15.8284 34.8718 15.7543C36.394 14.527 34.3344 12.9993 33.0205 12.9993C33.2536 11.2871 30.1608 9.84123 28.9661 10.8987C28.42 9.81337 26.0586 10.1157 25.2414 10.6687C24.3134 10.0652 23.0268 9.97324 21.9791 10.2569C18.6601 11.1577 17.5628 14.0556 13.4392 12.6475C13.8643 13.9274 14.74 14.214 15.4967 14.5558C15.4967 14.5558 13.7091 14.4517 11.5978 16.2243C9.48456 17.997 8.25633 21.8005 8.25633 21.8005C8.25633 21.8005 6.40989 22.0185 4.86765 25.4134C3.32694 28.8105 4.61558 33.6266 4.13373 36.3799C3.75022 38.5752 1.99731 41.2608 0 42.3838C3.02458 43.1123 3.99779 42.577 6.2814 40.5656C6.56209 42.5899 6.07861 48.6758 2.43152 50.7625C6.1335 52.6532 11.5907 48.3196 11.2709 45.6232C12.1919 46.9216 12.8035 50.6691 11.8908 54.2654C16.7214 53.6799 17.4815 52.102 18.1993 50.5793C19.2949 52.0516 21.2312 55.5004 20.8892 58.9654L20.8893 58.9655ZM29.3372 6.7608C28.8775 6.33925 28.6786 5.68155 28.5926 5.23416L28.6032 5.23253H28.6037L28.6144 5.23091H28.6146L28.6253 5.22847H28.6258L28.6367 5.22603H28.6371L28.6474 5.22359H28.6477L28.6583 5.22074H28.6586L28.6689 5.21779H28.6693L28.6796 5.21433H28.6799C28.8774 5.15107 29.0211 4.96831 29.0211 4.75108C29.0211 4.09999 28.0361 4.09999 28.0361 4.75108C28.0361 4.9434 28.1491 5.10826 28.3117 5.18809C26.9716 7.55997 24.4304 6.11937 24.4304 4.04161C24.4304 3.74536 24.6817 3.40333 24.9941 3.4729C25.4473 3.57867 25.4242 4.2621 25.3528 4.61592L25.3537 4.61541V4.61592C25.9886 4.15633 26.2196 3.29512 25.6424 2.72082C25.3179 2.39812 24.8261 2.30638 24.4304 2.54833C24.4589 2.0505 24.4349 0.397652 23.7085 0C22.8715 0.459588 22.9868 2.54864 22.9868 2.54864C22.9868 2.54864 22.3519 2.1462 21.7745 2.72082C21.1974 3.29512 21.4286 4.15633 22.0635 4.61592C22.0635 4.61592 21.8899 3.75471 22.2941 3.52466C22.6985 3.29512 22.9868 3.75471 22.9868 4.04161C22.9868 5.14639 22.5249 6.12934 20.909 6.41675C20.0382 6.57103 19.4122 5.73219 19.1045 5.18819C19.2673 5.10846 19.3802 4.9435 19.3802 4.75118C19.3802 4.48066 19.1598 4.26159 18.8883 4.26159C18.6163 4.26159 18.3959 4.48076 18.3959 4.75118C18.3959 4.99954 18.5831 5.20243 18.8246 5.23406C18.7387 5.68144 18.5396 6.33915 18.0803 6.7607C17.2243 7.34914 16.1365 6.82955 15.9627 5.56612C15.8098 4.4472 16.5156 3.76559 16.5156 3.76559C15.8446 3.46852 15.3837 4.02666 15.3837 4.02666C14.9284 3.17664 14.1777 3.06874 13.6123 3.0427C14.5264 3.94296 15.9885 8.31897 16.6933 11.2221C16.7222 11.4676 16.7625 11.6905 16.8129 11.8923C17.5616 11.5709 18.3624 11.0774 18.8025 10.8192C19.6652 10.3136 20.6977 9.68166 21.6638 9.41978C22.7756 9.11824 24.0451 9.19716 25.0747 9.73831C25.6286 9.49504 26.4295 9.36588 26.9264 9.31727C27.482 9.26276 28.0525 9.33659 28.5398 9.62054C29.1013 9.94782 28.7045 9.89107 29.3507 9.74248C29.9364 9.60742 30.5176 9.68899 31.0714 9.89036L31.072 9.88853L31.0725 9.88659L31.073 9.88446L31.0735 9.88283L31.074 9.8809L31.0745 9.87927L31.0748 9.87825V9.87693L31.0753 9.87561L31.0755 9.87459L31.0761 9.87358V9.87225L31.0767 9.87144L31.0769 9.87042V9.86961L31.0774 9.86859V9.86757L31.0782 9.86564L31.0784 9.86493L31.0803 9.85781L31.0808 9.85588L31.0814 9.85456L31.0817 9.85273L31.083 9.84876L31.0835 9.84632L31.0929 9.81337V9.81316C31.8599 7.06875 33.0291 3.80617 33.8041 3.0427C33.2386 3.06874 32.4879 3.17654 32.0329 4.02666C32.0329 4.02666 31.5718 3.46852 30.9008 3.76559C30.9008 3.76559 31.6068 4.4472 31.4537 5.56612C31.28 6.82894 30.1928 7.34853 29.3368 6.76151V6.7607L29.3372 6.7608ZM31.6797 12.8887C31.6918 14.2302 33.2072 14.0498 33.9655 14.7607C33.3348 15.2684 33.3385 16.2325 33.9511 16.7481C33.532 17.5752 33.4476 18.2693 34.0453 19.0549C32.3266 21.3834 29.942 16.9581 31.0599 16.1804C31.7244 15.6993 32.709 16.7648 32.6453 17.647C34.1762 15.4716 30.7085 12.8473 28.4639 13.2334C29.4542 13.914 29.559 14.7437 29.2056 15.7511C28.7885 14.6353 26.7437 13.2912 24.6309 12.9682C25.0252 13.7752 24.5468 14.7079 24.1816 15.0583C23.5513 13.2528 21.1917 12.3631 19.1233 12.7486C23.018 10.5871 24.1958 11.5415 25.3325 12.0126C26.2356 11.4877 27.4577 11.5716 28.288 12.0548C28.7715 12.3305 29.3685 12.2919 29.8079 11.9427C30.2749 11.6595 31.627 12.3021 31.6797 12.8889V12.8887ZM16.0781 13.8323C17.8271 13.8777 20.3857 13.0005 22.1213 14.5518C20.9063 14.231 18.997 14.0812 18.1671 14.9607C19.1658 14.432 21.5604 15.1527 22.9672 15.9515C21.4644 16.0734 19.9846 17.472 19.0901 18.8706C18.291 18.1937 17.1615 18.0731 16.2272 18.4392C16.6898 17.6274 17.6019 16.9356 18.2462 16.691C17.1037 16.4073 15.3902 16.8966 13.6248 18.2083C14.3331 16.2689 16.2197 15.0815 17.3943 15.0209C17.0341 14.4392 16.7632 14.2048 16.0781 13.8322V13.8323ZM23.5617 20.9589C22.6141 21.2427 22.031 22.3102 21.78 23.0955C21.5664 22.5528 21.2615 21.6984 22.1749 20.1864C20.3919 21.0947 20.1134 25.258 20.1282 26.3836C17.1237 22.0225 20.8459 17.1554 22.8731 17.1192C21.2435 18.1799 20.8016 19.5068 20.8977 20.1223C21.6088 19.0884 22.2919 18.9742 23.3641 19.1043C22.7341 19.6468 22.8985 20.5882 23.5616 20.9588L23.5617 20.9589ZM5.59073 34.349C5.51192 30.2703 4.57746 25.9844 8.2643 22.9911C6.84022 26.4944 8.59344 29.4773 9.14173 30.209C8.04597 29.6386 7.30295 29.0704 6.88499 27.2964C6.48584 28.6435 6.51579 33.8394 6.71214 35.071C7.50156 33.0409 7.73359 32.4385 8.86809 31.3427C7.74259 38.2119 10.4653 38.8002 11.4022 43.6493C10.8181 42.6724 10.3813 42.3691 9.65649 42.2107C11.2133 44.6309 8.78233 48.2464 5.66228 49.5386C8.18334 46.4583 8.21421 38.4636 7.29304 35.8616C6.66349 38.3874 5.40101 39.7511 3.53505 40.944C4.77729 38.9812 5.63386 36.8223 5.59083 34.3491L5.59073 34.349ZM13.3996 41.9712C12.7014 40.3826 12.482 36.3423 12.671 34.9701C13.0613 39.3008 15.9079 42.5307 15.205 46.5525C16.1267 45.9431 16.9823 44.1859 16.9098 42.3115C19.7699 46.306 20.3869 45.7875 21.5219 53.7335C21.0199 50.6009 18.8617 47.9383 16.9467 47.0325C17.258 49.4337 16.3996 51.783 14.0521 52.3438C14.7145 48.6538 13.533 46.5395 11.857 44.1583C13.0552 44.9364 12.9754 44.81 14.2483 44.8414C12.1482 42.9553 11.8076 41.8572 11.2591 40.2208C12.311 41.4198 12.068 41.1979 13.3994 41.9711L13.3996 41.9712ZM44.3011 29.1227C43.848 28.869 43.6374 28.331 43.4342 28.5662C43.2916 28.9856 43.3343 29.408 43.4468 29.7772C43.2714 29.8718 43.1173 30.0028 42.9986 30.1667C42.6878 30.5941 41.7859 31.8179 41.3371 32.3274C41.2645 32.4105 41.2124 32.4393 41.1884 32.4488C40.8413 32.4329 40.5006 32.551 40.2406 32.7783C39.9172 32.6079 39.532 32.5748 39.1772 32.6979C37.8708 30.7986 31.0367 30.5895 32.5132 36.2572C30.342 34.7629 28.9481 32.5603 30.2178 27.3506C27.5125 29.5897 28.0042 32.9159 28.5059 34.835C24.7677 30.8385 25.7661 24.5944 29.5688 21.8102C29.5688 21.8102 29.5308 21.162 28.8426 20.9017C28.1564 20.6416 28.5352 18.806 28.1612 18.3108C27.2516 17.1025 25.5583 16.7744 24.7226 17.7599C25.5221 18.1134 25.8772 18.8629 25.8026 19.1672C25.7281 19.473 25.1586 19.4284 25.2316 20.0451C25.5076 20.701 26.4752 21.124 27.196 21.4411C27.1559 21.552 23.6051 24.0941 23.9307 26.8641C23.9307 26.8641 24.7099 25.2158 25.9786 24.5873C24.4666 27.8247 24.5666 29.1521 25.4165 32.3691C23.5216 31.1174 20.3597 27.5641 21.7923 24.1495C21.781 24.6792 22.1648 25.5991 22.9178 26.1365C22.9227 23.7452 24.2685 22.6377 25.4237 22.1197C24.5496 22.0622 23.723 22.4258 23.0635 22.9361C23.896 21.6156 24.4361 21.1544 25.4264 21.0947C24.6712 20.8617 24.0107 20.0969 24.7122 19.2899C22.6098 18.5583 24.0699 13.4016 28.5384 16.4767C29.5493 17.0985 31.529 22.1421 33.5819 21.1162C33.9941 20.9098 34.3855 20.2236 34.5361 19.6275C35.6118 20.7161 36.689 21.4291 38.1959 21.818C38.5019 21.8974 38.6557 21.8958 38.876 22.1428C38.874 22.1445 38.8712 22.1445 38.8695 22.1461C38.6207 22.2924 39.0012 23.1914 38.6792 23.5195C38.3558 23.8475 37.6697 23.4172 36.8185 23.3731C35.9673 23.3301 35.6973 23.4313 35.7008 23.5636C35.7059 23.6946 37.0214 23.9108 37.1469 24.3066C37.2701 24.7024 37.9929 25.3474 38.2228 25.2876C38.4524 25.2276 37.9833 24.9231 37.8263 24.6377C37.6696 24.3524 38.0087 24.1632 38.402 24.1015C38.795 24.0385 39.2307 24.2922 39.5622 24.3887C39.7618 24.4469 39.9075 24.3747 39.9851 24.2498C41.9107 27.2783 42.8783 26.8055 44.4724 28.9304C44.4249 28.987 44.3648 29.0534 44.301 29.1228L44.3011 29.1227Z" fill="#1C1C1C"/>
</svg>
